<svg id="Layer_1" data-name="Layer 1" xmlns="http://www.w3.org/2000/svg" viewBox="0 0 374.58 374.58">
  <title>kei_logo</title>
  <path d="M374.44,187.29C374.44,83.85,290.59,0,187.16,0S-0.13,83.85-.13,187.29c0,2.23.05,4.45,0.13,6.66H374.31C374.39,191.73,374.44,189.52,374.44,187.29Z" transform="translate(0.13)" style="fill: #fff;opacity: 0.05"/>
  <path d="M0,193.94C3.51,294.3,86,374.58,187.16,374.58S370.81,294.3,374.31,193.94H0Z" transform="translate(0.13)" style="fill: #fff;opacity: 0.05"/>
  <polygon points="118.95 251.89 125.25 252.03 146.92 125.66 140.61 125.52 118.95 251.89" style="fill: white"/>
  <path d="M265.75,134a6.35,6.35,0,0,0-5,1.55,8.32,8.32,0,0,0-2.93,5.41,8.23,8.23,0,0,0,1.15,6,6.16,6.16,0,0,0,4.34,2.94,6.35,6.35,0,0,0,5.06-1.58,8.36,8.36,0,0,0,2.95-5.41,8.11,8.11,0,0,0-1.16-6A6.24,6.24,0,0,0,265.75,134Z" transform="translate(0.13)" style="fill: white"/>
  <path d="M115.64,197.56L101,197.25,98,212.93l-6.07-.13,2.94-15.67-13.68-.29,0.16-6.46L96,190.69,99,175l6.07,0.13-2.94,15.72,13.68,0.29Z" transform="translate(0.13)" style="fill: white"/>
  <path d="M263.43,217.41a4.81,4.81,0,0,1-3.27-1.16,4.55,4.55,0,0,1-1.33-3.62,16.65,16.65,0,0,1,.68-4.22l6.23-25.29a22.14,22.14,0,0,0,.73-5.54,7.65,7.65,0,0,0-2.54-6.06q-2.54-2.23-7.2-2.23a121.17,121.17,0,0,0-14.86,1.5v5.31h12q3.66,0,3.67,2.14a12.94,12.94,0,0,1-.47,3l-6.39,25.94a22.23,22.23,0,0,0-.78,5.71,10.55,10.55,0,0,0,3.4,8.16,12.36,12.36,0,0,0,8.69,3.12q12,0,21.62-12.44l-6-4Q270.55,217.41,263.43,217.41Z" transform="translate(0.13)" style="fill: white"/>
  <path d="M195.32,170.24h-8.4q-0.5,7-11.52,15.77L163,195.92l8.11-44.46h-8.4l-13.29,72.72h8.4l3.26-17.87,8.7-7,4.65,8a33.15,33.15,0,0,1,4.1,16.87H187A39.61,39.61,0,0,0,181,204l-5.39-9.29,4.74-3.81Q194.68,179.43,195.32,170.24Z" transform="translate(0.13)" style="fill: white"/>
  <path d="M219.91,169.29a19.93,19.93,0,0,0-13.65,5.39q-5.88,5.34-8.21,18a81.61,81.61,0,0,0-1.89,14q0,7,3.16,11.34,4.71,6.23,13.22,6.23a22.77,22.77,0,0,0,18.9-9.28l-6-4.12q-4.76,6.61-11.57,6.61-5.3,0-8.07-3.45-1.7-2.16-1.7-6.66a49.46,49.46,0,0,1,1.17-8.91H234l0.92-5.25a40.9,40.9,0,0,0,.73-7.31q0-6.84-3.06-10.73Q228,169.29,219.91,169.29Zm7.14,22.3H206.54q1.51-8.46,4.86-11.94a10.37,10.37,0,0,1,7.68-3.57,8.06,8.06,0,0,1,6.95,3.57,10.84,10.84,0,0,1,1.6,6.36A30.83,30.83,0,0,1,227,191.59Z" transform="translate(0.13)" style="fill: white"/>
</svg>
